# xmcd CD database file
#
# Track frame offsets:
#	187
#	20297
#	37405
#	59167
#	81077
#	97840
#	114782
#	137147
#	158340
#	178837
#	196155
#	215577
#	234882
#	255797
#	274265
#	297320
#
# Disc length: 4202 seconds
#
# Revision: 0
# Processed by: cddbd v1.5.1PL0 Copyright (c) Steve Scherf et al.
# Submitted via: CDex 1.51
#
DISCID=d8106810
DTITLE=あみん - NEW BEST
DYEAR=1993
DGENRE=JPop
TTITLE0=待つわ
TTITLE1=琥珀色の思い出
TTITLE2=コーヒーはきらい
TTITLE3=湖の香りの中で
TTITLE4=ペパーミントの香り
TTITLE5=あなたへ…
TTITLE6=白いページの中に
TTITLE7=ボヘミアン
TTITLE8=リベルテ
TTITLE9=追想
TTITLE10=そよ風の妖精
TTITLE11=あの日の風景
TTITLE12=未知標
TTITLE13=心こめて　愛をこめて
TTITLE14=ラヴァー・マイ・ラヴ
TTITLE15=おやすみ
EXTD=YEAR: 1993
EXTT0=
EXTT1=
EXTT2=
EXTT3=
EXTT4=
EXTT5=
EXTT6=
EXTT7=
EXTT8=
EXTT9=
EXTT10=
EXTT11=
EXTT12=
EXTT13=
EXTT14=
EXTT15=
PLAYORDER=
